<svg xmlns="http://www.w3.org/2000/svg" width="1200" height="630" viewBox="0 0 1200 630">
  <defs>
    <radialGradient id="glow1" cx="30%" cy="10%" r="70%">
      <stop offset="0" stop-color="#6ee7b7" stop-opacity="0.18"/>
      <stop offset="1" stop-color="#000000" stop-opacity="0"/>
    </radialGradient>
    <radialGradient id="glow2" cx="85%" cy="35%" r="65%">
      <stop offset="0" stop-color="#ffffff" stop-opacity="0.10"/>
      <stop offset="1" stop-color="#000000" stop-opacity="0"/>
    </radialGradient>
    <linearGradient id="textg" x1="0" y1="0" x2="1" y2="1">
      <stop offset="0" stop-color="#ffffff" stop-opacity="0.95"/>
      <stop offset="1" stop-color="#6ee7b7" stop-opacity="0.95"/>
    </linearGradient>
  </defs>

  <rect width="1200" height="630" fill="#0b0f17"/>
  <rect width="1200" height="630" fill="url(#glow1)"/>
  <rect width="1200" height="630" fill="url(#glow2)"/>

  <!-- subtle grid -->
  <g opacity="0.08">
    <path d="M0 90H1200M0 180H1200M0 270H1200M0 360H1200M0 450H1200M0 540H1200" stroke="#fff"/>
    <path d="M90 0V630M180 0V630M270 0V630M360 0V630M450 0V630M540 0V630M630 0V630M720 0V630M810 0V630M900 0V630M990 0V630M1080 0V630" stroke="#fff"/>
  </g>

  <!-- badge -->
  <g transform="translate(72,72)">
    <rect x="0" y="0" width="68" height="68" rx="18" fill="#0b0f17" stroke="rgba(255,255,255,0.18)" stroke-width="2"/>
    <path d="M20 48V20h6l12 16V20h6v28h-6L26 28v20h-6z" fill="url(#textg)"/>
  </g>

  <text x="160" y="112" fill="#ffffff" opacity="0.90" font-family="system-ui, -apple-system, Segoe UI, Roboto, Arial" font-size="28" font-weight="600">
    NokuLabs
  </text>
  <text x="160" y="148" fill="#ffffff" opacity="0.55" font-family="system-ui, -apple-system, Segoe UI, Roboto, Arial" font-size="18" font-weight="600" letter-spacing="3">
    ARCHITECTURE-FIRST
  </text>

  <text x="72" y="280" fill="#ffffff" opacity="0.96" font-family="system-ui, -apple-system, Segoe UI, Roboto, Arial" font-size="60" font-weight="700">
    Systems that last.
  </text>
  <text x="72" y="350" fill="#ffffff" opacity="0.80" font-family="system-ui, -apple-system, Segoe UI, Roboto, Arial" font-size="30" font-weight="600">
    Security-minded • Audit-ready • Ops-first
  </text>

  <text x="72" y="440" fill="#ffffff" opacity="0.62" font-family="system-ui, -apple-system, Segoe UI, Roboto, Arial" font-size="22">
    Premium web systems, software &amp; consulting — built for real-world constraints.
  </text>

  <text x="72" y="540" fill="#ffffff" opacity="0.50" font-family="system-ui, -apple-system, Segoe UI, Roboto, Arial" font-size="18">
    nokulabs.com
  </text>
</svg>